<svg xmlns="http://www.w3.org/2000/svg" viewBox="0 0 656 150" fill-rule="evenodd" clip-rule="evenodd" stroke-linejoin="round" stroke-miterlimit="2"><path d="M94.946 6.475c.91 0 1.656.765 1.656 1.7v40.949c0 .935.745 1.7 1.655 1.7h39.887c.91 0 1.656.765 1.656 1.7V148.3c0 .935-.746 1.7-1.656 1.7H1.655C.745 150 0 149.235 0 148.3V8.175c0-.935.745-1.7 1.655-1.7h93.29z" fill="#4c4b63"></path><path d="M103.027 42.649c0 .935.745 1.7 1.656 1.7h39.888c.91 0 1.656-.765 1.656-1.7V1.699c0-.934-.745-1.7-1.656-1.7h-39.888c-.911 0-1.656.766-1.656 1.7v40.95z" fill="#ff562b"></path><path d="M221.923 119.957c.804 0 1.34-.536 1.34-1.34V45.453c0-.536.268-.804.804-.804h14.338c.804 0 1.34-.536 1.34-1.34V30.177c0-.804-.536-1.34-1.34-1.34h-47.838c-.804 0-1.34.536-1.34 1.34v13.132c0 .804.536 1.34 1.34 1.34h14.338c.536 0 .804.268.804.804v73.164c0 .804.536 1.34 1.34 1.34h14.874zM257.299 121.163c11.39 0 19.698-6.03 21.574-16.348.134-.938-.134-1.474-.938-1.608l-12.73-2.546c-.804-.134-1.34.134-1.608.938-1.072 3.484-2.948 5.092-6.03 5.092-2.68 0-4.422-1.34-5.226-3.752-.402-1.072-.67-2.546-.67-9.246 0-.536.268-.804.804-.804h25.862c.804 0 1.34-.536 1.34-1.34 0-16.884-.402-20.502-1.608-23.986-2.948-8.71-9.782-13.668-20.77-13.668-10.854 0-17.688 4.958-20.636 13.668-1.206 3.484-1.608 7.236-1.608 19.966s.402 16.482 1.608 19.966c2.948 8.71 9.648 13.668 20.636 13.668zm5.36-40.2h-10.184c-.536 0-.804-.268-.804-.804 0-6.03.268-7.638.67-8.978.804-2.144 2.412-3.484 5.226-3.484s4.422 1.34 5.226 3.484c.402 1.34.67 2.948.67 8.978 0 .536-.268.804-.804.804zM307.013 121.163c12.194 0 20.502-7.102 21.306-18.492 0-.938-.268-1.34-1.072-1.474l-12.864-2.412c-.804-.134-1.474.268-1.608 1.206-.402 4.556-2.412 6.432-5.494 6.432-2.546 0-4.154-1.072-4.958-3.35-.402-1.474-.536-2.814-.536-15.544s.134-14.07.536-15.544c.804-2.278 2.412-3.35 4.958-3.35 3.082 0 5.092 1.876 5.494 6.432.134.938.804 1.34 1.608 1.206l12.864-2.412c.804-.134 1.072-.536 1.072-1.474-.804-11.524-9.112-18.492-21.306-18.492-10.452 0-17.554 4.556-20.368 13.534-1.206 3.886-1.608 6.968-1.608 20.1 0 12.998.402 16.214 1.608 20.1 2.814 8.978 9.916 13.534 20.368 13.534zM332.339 118.617c-.134.804.268 1.34 1.072 1.34h11.39c.938 0 1.34-.536 1.474-1.34l3.618-18.358h18.09l3.618 18.358c.134.804.536 1.34 1.474 1.34h11.39c.804 0 1.206-.536 1.072-1.34l-19.296-88.44c-.134-.804-.67-1.34-1.474-1.34h-11.256c-.804 0-1.206.536-1.474 1.34l-19.698 88.44zm19.832-30.418l6.7-33.902h.402l6.432 33.902h-13.534zM410.863 120.76c.804 0 1.34-.535 1.34-1.34v-9.647c0-.804-.536-1.34-1.34-1.474l-.67-.134c-3.484-.67-5.226-2.68-5.226-6.968v-71.02c0-.804-.536-1.34-1.34-1.34h-10.988c-.804 0-1.34.536-1.34 1.34v71.02c0 13.668 4.958 19.162 19.162 19.564h.402zM438.735 120.76c.804 0 1.34-.535 1.34-1.34v-9.647c0-.804-.536-1.34-1.34-1.474l-.67-.134c-3.484-.67-5.226-2.68-5.226-6.968v-71.02c0-.804-.536-1.34-1.34-1.34h-10.988c-.804 0-1.34.536-1.34 1.34v71.02c0 13.668 4.958 19.162 19.162 19.564h.402zM460.041 43.04c.804 0 1.34-.535 1.34-1.34V30.178c0-.804-.536-1.34-1.34-1.34h-10.988c-.804 0-1.34.536-1.34 1.34V41.7c0 .804.536 1.34 1.34 1.34h10.988zm0 76.917c.804 0 1.34-.536 1.34-1.34V56.709c0-.804-.536-1.34-1.34-1.34h-10.988c-.804 0-1.34.536-1.34 1.34v61.908c0 .804.536 1.34 1.34 1.34h10.988zM508.683 119.957c.804 0 1.34-.536 1.34-1.34V76.273c0-15.678-5.628-22.11-20.234-22.11-7.236 0-13.266 2.412-17.554 5.762-.536.536-.804 1.072-.402 1.876l3.484 7.906c.402.938 1.206 1.072 2.01.536 3.35-2.278 6.432-3.752 10.72-3.752 6.834 0 8.844 3.216 8.844 10.318v3.752c0 .536-.268.804-.804.804h-6.968c-10.586 0-19.698 5.226-19.698 20.502 0 14.74 8.04 19.296 15.41 19.296 5.896 0 10.318-3.082 11.926-7.638h.134v5.092c0 .804.536 1.34 1.34 1.34h10.452zm-19.832-10.05c-4.288 0-6.432-3.082-6.432-8.576 0-5.36 2.412-8.978 8.978-8.978h4.69c.536 0 .804.268.804.804v7.638c0 5.36-3.216 9.112-8.04 9.112zM560.139 119.957c.804 0 1.34-.536 1.34-1.34V74.263c0-14.07-5.36-20.1-15.008-20.1-6.164 0-10.05 3.216-12.328 7.638h-.134v-5.092c0-.804-.536-1.34-1.34-1.34h-10.988c-.804 0-1.34.536-1.34 1.34v61.908c0 .804.536 1.34 1.34 1.34h10.988c.804 0 1.34-.536 1.34-1.34V76.139c0-6.298 2.412-9.38 6.834-9.38 4.556 0 6.968 3.082 6.968 9.38v42.478c0 .804.536 1.34 1.34 1.34h10.988zM589.619 121.163c11.256 0 19.028-6.968 19.698-17.554 0-.938-.268-1.34-1.072-1.474l-10.184-2.01c-.938-.134-1.474.268-1.608 1.206-.67 5.092-3.082 7.236-6.834 7.236-2.948 0-4.958-1.34-5.896-4.154-.536-1.742-.67-3.35-.67-16.75s.134-15.008.67-16.75c.938-2.814 2.948-4.154 5.896-4.154 3.752 0 6.164 2.144 6.834 7.236.134.938.67 1.34 1.608 1.206l10.184-2.01c.804-.134 1.072-.536 1.072-1.474-.67-10.586-8.442-17.554-19.698-17.554-9.648 0-15.946 4.556-18.626 12.73-1.206 3.752-1.608 6.164-1.608 20.77s.402 17.018 1.608 20.77c2.68 8.174 8.978 12.73 18.626 12.73z" fill="#272838" fill-rule="nonzero"></path><g><path d="M634.375 121.163c10.586 0 18.358-6.03 20.1-15.678.134-.938-.134-1.474-.938-1.608l-10.318-2.01c-.804-.134-1.34.134-1.608.938-1.206 4.02-3.35 5.762-7.102 5.762-3.216 0-5.36-1.474-6.298-4.288-.402-1.474-.67-3.082-.67-11.122 0-.536.268-.804.804-.804h25.594c.804 0 1.34-.536 1.34-1.34 0-17.152-.402-20.77-1.474-23.986-2.68-8.174-9.112-12.864-19.296-12.864-10.05 0-16.482 4.69-19.162 12.864-1.072 3.216-1.474 6.834-1.474 20.636s.402 17.42 1.474 20.636c2.68 8.174 8.978 12.864 19.028 12.864zm.134-54.806c3.35 0 5.494 1.742 6.298 4.288.536 1.474.804 3.216.804 9.916 0 .536-.268.804-.804.804h-12.462c-.536 0-.804-.268-.804-.804 0-6.7.268-8.442.804-9.916.804-2.546 2.948-4.288 6.164-4.288z" fill="#272838" fill-rule="nonzero"></path></g></svg>